<svg width="375" height="210" viewBox="0 0 375 210" fill="none" xmlns="http://www.w3.org/2000/svg">
<g clip-path="url(#clip0_117_3461)">
<path d="M184.841 88.8555C186.617 87.6712 188.542 87.2264 190.614 87.5225C191.65 87.6705 192.687 88.0408 193.723 88.6328C194.759 89.2249 195.426 90.0391 195.722 91.0752C196.018 92.5555 196.091 93.6661 195.943 94.4062C195.795 95.1463 195.573 95.7385 195.277 96.1826C195.129 96.6267 194.907 97.2189 194.611 97.959C194.315 98.255 193.797 98.477 193.057 98.625C192.465 98.625 192.021 98.5512 191.725 98.4033C191.281 98.1073 190.837 97.8107 190.393 97.5146C189.948 97.2186 189.726 96.8484 189.726 96.4043C189.578 95.6642 189.504 94.6279 189.504 93.2959V93.0742C188.912 93.3703 188.393 93.7405 187.949 94.1846C187.505 94.4805 187.061 94.7763 186.617 95.0723L185.285 96.4043C184.841 96.7004 184.323 97.1452 183.73 97.7373C183.434 98.1813 182.917 98.7737 182.177 99.5137C181.437 100.402 180.696 101.29 179.956 102.178C179.364 102.918 178.772 103.732 178.18 104.62C176.995 106.248 175.885 107.803 174.849 109.283C173.812 110.763 172.85 112.318 171.962 113.946C171.666 114.242 171.519 114.538 171.519 114.834H171.296V115.057C171.148 115.353 171.074 115.575 171.074 115.723C170.926 115.723 170.778 115.871 170.63 116.167C170.334 116.611 170.186 117.055 170.186 117.499C170.038 117.795 169.816 118.165 169.52 118.609C169.223 119.349 168.928 120.09 168.632 120.83C168.336 121.57 168.114 122.384 167.966 123.272C167.818 123.42 167.743 123.791 167.743 124.383C167.632 124.494 167.563 124.647 167.535 124.841L167.521 125.049V127.047C167.521 127.195 167.595 127.268 167.743 127.269C167.743 128.009 168.188 128.232 169.076 127.936C169.964 127.491 170.556 127.121 170.853 126.825C172.481 125.937 173.887 124.975 175.071 123.938L175.515 123.494C175.663 123.494 175.886 123.346 176.182 123.05C176.477 122.902 176.625 122.754 176.625 122.606C176.773 122.458 176.995 122.31 177.291 122.162L179.512 119.941C182.472 116.981 185.433 113.798 188.394 110.394C189.578 109.061 190.762 107.729 191.946 106.396C193.131 104.916 194.315 103.51 195.499 102.178L202.604 95.0723C203.197 94.036 203.863 93.1483 204.604 92.4082C205.344 91.5201 206.305 90.9279 207.489 90.6318C209.266 90.3358 210.673 90.6313 211.709 91.5195C212.153 91.8155 212.522 92.2598 212.818 92.8516C213.114 93.4436 213.041 94.0359 212.597 94.6279C211.857 95.3681 211.191 96.0348 210.599 96.6269C210.007 97.071 209.34 97.6632 208.6 98.4033C208.304 99.1433 207.933 99.8093 207.489 100.401C207.193 100.845 206.898 101.364 206.602 101.956C206.009 102.844 205.491 103.732 205.047 104.62C204.603 105.36 204.085 106.174 203.493 107.062C202.605 108.543 201.716 110.024 200.828 111.504C199.94 112.836 199.052 114.316 198.164 115.944C198.016 116.24 197.868 116.537 197.72 116.833C197.572 117.129 197.423 117.425 197.275 117.721C197.203 117.793 197.139 117.853 197.084 117.898C197.112 117.803 197.158 117.746 197.224 117.728L197.164 117.735C197.053 117.763 196.942 117.833 196.831 117.943C196.831 118.055 196.916 118.039 197.084 117.898C197.064 117.967 197.054 118.056 197.054 118.165C196.758 118.461 196.609 118.758 196.609 119.054C196.313 119.646 195.943 120.238 195.499 120.83C195.203 121.422 194.907 122.014 194.611 122.606C194.019 123.643 193.427 124.679 192.835 125.715C192.391 126.603 191.946 127.565 191.502 128.602C190.077 131.321 188.71 134.098 187.398 136.932L186.281 139.367C184.97 142.201 183.602 144.977 182.177 147.697C181.585 148.733 181.066 149.696 180.622 150.584C180.178 151.62 179.659 152.656 179.067 153.692C185.877 152.064 192.687 150.436 199.496 148.808C206.305 147.327 213.189 145.921 220.146 144.589C226.66 143.405 233.099 142.22 239.464 141.036C245.829 140 252.343 139.038 259.004 138.149C271.882 136.669 284.909 135.559 298.084 134.818C305.485 134.374 312.813 134.226 320.066 134.374C327.32 134.522 334.574 135.041 341.827 135.929C345.084 136.225 348.341 136.595 351.598 137.039C354.854 137.483 358.037 138.224 361.146 139.26C362.626 139.704 364.254 140.296 366.03 141.036C367.955 141.776 369.583 142.664 370.915 143.7C372.395 144.884 373.506 146.217 374.246 147.697C375.134 149.326 375.283 151.102 374.69 153.026C374.394 153.914 373.802 154.433 372.914 154.581C372.026 154.729 371.063 154.654 370.027 154.358C369.139 154.062 368.325 153.618 367.585 153.026C366.845 152.434 366.622 151.694 366.918 150.806C367.066 150.066 367.066 149.251 366.918 148.363C366.918 148.067 366.844 147.845 366.696 147.697V147.476H366.475C366.475 147.328 366.326 147.105 366.03 146.809L365.809 146.587H365.586C364.698 145.995 364.032 145.625 363.588 145.477C363.44 145.329 363.218 145.255 362.922 145.255C362.922 145.107 362.847 145.032 362.699 145.032C362.403 144.884 362.181 144.811 362.033 144.811C362.028 144.808 361.88 144.734 361.589 144.589C361.293 144.441 360.923 144.292 360.479 144.145C360.036 144.145 359.665 144.071 359.369 143.923C355.372 143.035 351.449 142.294 347.601 141.702C343.9 141.258 339.903 140.888 335.61 140.592C321.399 139.556 307.114 139.556 292.755 140.592C289.646 140.888 286.538 141.11 283.43 141.258C280.321 141.554 277.212 141.85 274.104 142.146C270.699 142.443 267.368 142.812 264.111 143.256C261.003 143.7 257.82 144.145 254.563 144.589C241.389 146.513 228.214 148.807 215.039 151.472C202.012 154.284 188.986 157.32 175.959 160.576C175.811 160.724 175.589 160.798 175.293 160.798C175.293 160.946 175.219 161.094 175.071 161.242C175.071 161.39 174.997 161.538 174.849 161.686C173.812 163.758 172.776 165.683 171.74 167.459C170.704 169.383 169.668 171.308 168.632 173.232C166.559 176.785 164.486 180.338 162.414 183.891C160.194 187.443 157.825 190.922 155.309 194.327C153.236 197.287 150.942 200.026 148.426 202.542C145.909 205.058 142.949 206.983 139.544 208.315C137.027 209.352 134.362 209.795 131.55 209.647C128.737 209.499 126.221 208.612 124.001 206.983C122.077 205.651 120.818 203.875 120.226 201.654C119.485 199.582 119.264 197.362 119.56 194.993C120.004 192.477 120.818 190.034 122.002 187.665C123.038 185.445 124.297 183.298 125.777 181.226C128.294 177.525 131.624 174.046 135.769 170.79C139.617 167.829 143.837 165.313 148.426 163.24C152.867 161.316 157.456 159.614 162.192 158.134L169.52 156.135C169.964 155.247 170.482 154.359 171.074 153.471C171.518 152.583 171.962 151.694 172.406 150.806V150.584C173.59 148.215 174.849 145.699 176.182 143.034C177.514 140.518 179.438 136.891 181.954 132.154C182.842 130.526 183.656 128.897 184.396 127.269C185.285 125.64 186.173 124.012 187.062 122.384C187.354 121.799 187.502 121.503 187.506 121.496L186.84 122.162C186.84 122.31 186.691 122.458 186.396 122.606C184.915 124.087 183.434 125.493 181.954 126.825C180.474 128.009 178.919 129.194 177.291 130.378C175.663 131.414 174.034 132.154 172.406 132.598C170.778 133.042 169.002 132.968 167.077 132.376C165.449 132.08 164.043 131.339 162.858 130.155C161.526 128.971 160.712 127.491 160.416 125.715C160.268 124.087 160.416 122.532 160.86 121.052C161.304 119.571 161.897 118.091 162.637 116.61C163.377 114.834 164.265 113.132 165.301 111.504C165.536 111.032 165.783 110.566 166.04 110.105C164.322 111.275 162.551 112.483 160.725 113.725C157.024 116.093 153.027 118.387 148.734 120.607C145.774 122.236 142.591 123.864 139.187 125.492C135.782 126.972 132.525 128.083 129.416 128.823C125.863 129.711 122.31 130.082 118.758 129.934C116.686 129.638 114.762 128.897 112.985 127.713C111.061 126.529 109.728 124.9 108.988 122.828C108.544 120.756 108.766 118.683 109.654 116.61C110.394 114.39 111.282 112.466 112.318 110.838C114.983 106.841 118.092 103.14 121.645 99.7353C123.125 98.2551 124.753 96.7742 126.529 95.2939C128.454 93.8136 130.453 92.4821 132.525 91.2978C134.302 90.2618 136.448 89.4476 138.964 88.8555C141.628 88.1154 143.997 88.4848 146.069 89.9648C147.846 91.4451 148.438 93.1479 147.846 95.0723C147.402 96.9967 146.588 98.773 145.403 100.401C143.331 103.214 140.519 105.953 136.966 108.617C135.337 109.801 133.561 110.912 131.637 111.948C129.861 112.984 128.01 113.872 126.086 114.612C124.902 115.204 123.569 115.575 122.089 115.723C120.461 115.871 118.98 115.649 117.647 115.057L117.204 115.501C116.612 116.685 116.242 117.647 116.094 118.387C115.946 118.535 115.871 118.758 115.871 119.054V119.497C115.723 119.497 115.649 119.572 115.649 119.72L115.428 120.607C115.428 121.348 115.501 122.088 115.649 122.828C115.649 123.568 116.02 124.309 116.76 125.049C117.352 125.345 117.796 125.492 118.092 125.492H120.091C122.755 125.196 125.124 124.752 127.196 124.16C129.269 123.568 131.489 122.754 133.857 121.718C139.334 119.201 144.664 116.389 149.845 113.28C155.026 110.024 160.651 106.323 166.72 102.178C167.904 101.29 169.163 100.402 170.495 99.5137C171.975 98.6255 173.307 97.7367 174.491 96.8486C175.083 96.5526 175.75 96.1824 176.49 95.7383C176.524 95.718 176.558 95.6986 176.592 95.6787C177.725 94.4521 178.919 93.2867 180.178 92.1855C181.658 91.0014 183.213 89.8916 184.841 88.8555ZM165.967 163.019C165.671 163.019 165.449 163.092 165.301 163.24C160.712 164.424 156.271 166.127 151.979 168.348C147.686 170.42 143.763 172.862 140.21 175.675C136.657 178.635 133.622 182.188 131.105 186.333C129.921 188.109 128.885 190.182 127.997 192.551C126.961 194.919 126.517 197.14 126.665 199.212C126.665 199.952 126.739 200.47 126.887 200.766V201.21C126.887 201.358 126.961 201.506 127.109 201.654C127.22 201.876 127.29 202.057 127.317 202.195L127.345 202.445C127.372 202.584 127.443 202.764 127.554 202.986H127.775C127.775 203.134 127.849 203.283 127.997 203.431L128.441 203.875C128.737 204.171 129.033 204.393 129.329 204.541H129.773L129.996 204.763H131.994C132.142 204.615 132.364 204.541 132.66 204.541C133.104 204.541 133.623 204.393 134.215 204.097C134.511 203.949 134.807 203.875 135.103 203.875C135.251 203.875 135.473 203.727 135.769 203.431C137.397 202.543 138.729 201.728 139.766 200.988C139.914 200.84 140.062 200.766 140.21 200.766C140.215 200.761 140.289 200.687 140.432 200.544H140.654V200.322C141.838 199.434 142.875 198.472 143.763 197.436C144.651 196.399 145.539 195.289 146.427 194.104C148.943 190.996 151.238 187.74 153.311 184.335C155.383 181.078 157.455 177.747 159.527 174.343C160.712 172.418 161.822 170.494 162.858 168.569C163.747 166.793 164.783 164.943 165.967 163.019ZM109.009 0.9248C115.522 0.184653 122.036 -0.110926 128.549 0.0371044C130.769 0.0371044 132.99 0.110773 135.21 0.258784C137.43 0.258784 139.577 0.480753 141.649 0.9248C143.722 1.36887 145.72 1.8874 147.645 2.47949C149.569 3.07161 151.494 3.81201 153.418 4.70019C157.415 6.62458 160.894 9.28867 163.854 12.6934C166.815 16.098 168.295 20.1693 168.295 24.9062C168.147 29.6431 166.814 34.0101 164.298 38.0068C161.781 42.0035 158.969 45.6301 155.86 48.8867C152.456 52.4394 148.829 55.844 144.98 59.1006C141.132 62.3573 137.282 65.4661 133.434 68.4268C128.993 71.8314 124.478 75.0887 119.89 78.1973C115.301 81.1578 110.564 84.0439 105.679 86.8564C95.6127 92.4816 85.1762 97.3669 74.3701 101.512C63.712 105.509 52.8317 108.988 41.7295 111.948C43.0616 112.54 44.3198 113.355 45.5039 114.391C47.4281 115.575 49.2785 116.907 51.0547 118.387C52.8309 119.867 54.6075 121.422 56.3838 123.05C57.864 124.234 59.2703 125.567 60.6025 127.047C62.0828 128.379 63.6373 129.712 65.2656 131.044C67.4861 133.116 69.7809 135.041 72.1494 136.817C74.6658 138.594 77.1082 140.444 79.4766 142.368C82.2891 144.589 85.0279 146.809 87.6924 149.029C90.5049 151.25 93.3173 153.545 96.1299 155.913L104.568 162.796C105.308 163.388 105.974 163.98 106.566 164.572L108.632 166.225C108.535 166.161 108.44 166.127 108.343 166.127L109.231 166.793L109.675 167.237C112.339 169.31 114.782 171.53 117.003 173.898C117.595 174.639 118.113 175.379 118.557 176.119C119.001 176.859 119.371 177.673 119.667 178.562C119.963 179.746 119.667 180.56 118.779 181.004C117.891 181.596 117.002 181.966 116.114 182.114C115.078 182.262 113.968 182.04 112.784 181.448C111.748 181.004 111.008 180.337 110.563 179.449C110.268 178.413 110.341 177.674 110.785 177.229L110.341 177.007C110.193 176.563 109.823 176.045 109.231 175.453L107.677 173.898V173.677H107.455V173.603L107.011 173.454H107.455L106.566 173.011L104.124 170.79C103.68 170.346 103.161 169.976 102.569 169.68C102.273 169.384 101.978 169.087 101.682 168.791C101.534 168.643 101.312 168.421 101.016 168.125L94.3535 162.574C92.1332 160.65 89.839 158.8 87.4707 157.023C85.2502 155.247 82.9554 153.396 80.5869 151.472L64.1553 138.149C60.3066 135.337 56.7537 132.228 53.4971 128.823C51.5728 127.195 49.6488 125.567 47.7246 123.938C45.9482 122.31 44.0236 120.756 41.9512 119.275L39.0644 117.055C38.9165 117.055 38.7681 116.981 38.6201 116.833C38.4721 116.685 38.2501 116.61 37.9541 116.61L36.6221 115.944L35.0674 115.278C35.0673 115.13 34.9937 115.057 34.8457 115.057H34.624L33.291 114.612H33.0693C32.3293 114.464 31.4412 114.169 30.4053 113.725C29.3691 113.132 28.7769 112.317 28.6289 111.281C28.3329 110.541 28.2582 109.949 28.4062 109.505C28.7023 108.913 29.2209 108.544 29.9609 108.396C44.4679 105.139 58.7526 100.697 72.8154 95.0723C78.4405 92.8518 83.9917 90.4096 89.4687 87.7451C95.0939 84.9325 100.498 81.8973 105.679 78.6406C110.119 75.8282 114.412 72.9419 118.557 69.9814C122.85 66.8728 127.069 63.7639 131.214 60.6553C134.618 57.8428 136.987 55.918 138.319 54.8818C139.799 53.6977 141.131 52.5132 142.315 51.3291C144.24 49.7009 146.016 47.9989 147.645 46.2227C149.421 44.4463 151.124 42.5216 152.752 40.4492C153.492 39.4131 154.158 38.4506 154.75 37.5625C155.49 36.6743 156.157 35.712 156.749 34.6758C156.749 34.5277 156.823 34.3057 156.971 34.0098C157.267 33.7138 157.415 33.4918 157.415 33.3437L158.081 32.0117C158.673 30.8276 159.043 29.8651 159.191 29.125C159.635 28.2368 159.857 27.2745 159.857 26.2383C160.005 26.0903 160.079 25.8682 160.079 25.5723V24.0176C160.079 22.3893 160.005 21.205 159.857 20.4648C159.857 19.947 159.801 19.5424 159.687 19.251L159.636 19.1328C159.636 19.0345 159.602 18.9695 159.537 18.9365L159.413 18.6885C159.413 18.5406 159.339 18.4668 159.191 18.4668V18.0225L158.055 15.749C158.021 15.7308 157.955 15.6758 157.859 15.5801C157.563 15.136 157.34 14.8394 157.192 14.6914L156.305 13.582L155.86 12.915L154.75 12.0273L152.752 10.4727H152.308C152.3 10.4654 152.152 10.3179 151.863 10.0293L150.531 9.3623C150.235 9.06646 149.865 8.91894 149.421 8.91894C149.125 8.77091 148.755 8.54893 148.311 8.25292H148.089C147.941 8.10489 147.719 8.03027 147.423 8.03027L146.312 7.58593L143.87 6.91992L142.538 6.47656H142.315C142.451 6.47656 142.585 6.53999 142.721 6.66406C142.648 6.64338 142.522 6.61154 142.344 6.57324L141.872 6.47656H141.206C140.91 6.32853 140.613 6.2539 140.317 6.2539C139.429 5.95785 138.467 5.80957 137.431 5.80957H133.656C133.508 5.66163 133.582 5.58791 133.878 5.58789H125.885L116.559 6.03222C113.154 6.32829 109.897 6.69849 106.788 7.14257C103.828 7.58665 100.867 8.10419 97.9062 8.69628C91.3931 10.0285 84.954 11.5831 78.5889 13.3594C72.0756 15.2837 65.7103 17.4304 59.4932 19.7988C53.2759 22.1673 47.0581 24.7577 40.8408 27.5703C28.8504 33.0474 17.1561 39.0433 5.75781 45.5566C-5.64049 52.0699 -16.8909 59.0272 -27.9932 66.4287C-24.4406 68.205 -21.4798 70.721 -19.1113 73.9775C-16.4468 77.5303 -14.5968 81.5278 -13.5606 85.9687C-12.5244 90.2614 -11.8576 94.554 -11.5615 98.8467C-11.2655 103.732 -11.3401 108.692 -11.7842 113.725C-12.0802 118.609 -12.5978 123.494 -13.3379 128.379L-15.1143 141.036C-15.4103 144.441 -15.7069 147.253 -16.0029 149.474C-16.151 151.694 -16.2992 153.47 -16.4473 154.803C-16.4473 156.135 -16.5209 157.171 -16.669 157.911C-16.817 158.799 -16.8906 159.54 -16.8906 160.132C-16.5947 159.392 -16.2989 158.726 -16.0029 158.134C-15.559 157.542 -15.1886 156.949 -14.8926 156.357L-6.45509 142.812C0.0581819 132.895 6.71997 123.198 13.5293 113.725C20.4867 104.251 27.5186 94.7766 34.624 85.3027C38.0287 80.8618 41.2849 76.4204 44.3935 71.9795C47.6502 67.5386 50.981 63.1718 54.3857 58.8789C55.5699 57.3988 56.606 55.9186 57.4941 54.4385C58.5303 52.9582 59.5664 51.4773 60.6025 49.9971L63.9336 44.8896C64.3776 44.2976 64.8216 43.7053 65.2656 43.1133C65.7097 42.5213 66.302 42.0773 67.042 41.7812C68.5223 41.0411 70.0031 41.263 71.4834 42.4473C71.9275 42.7433 72.223 43.2618 72.3711 44.0019C72.6671 44.5941 72.4452 45.1125 71.7051 45.5566C71.5262 45.6461 71.4296 45.6799 71.4131 45.6611L71.0391 46.2227C70.4471 46.8147 69.9284 47.5544 69.4844 48.4424L66.1543 53.5498C64.0819 57.1025 62.0089 60.2851 59.9365 63.0977C53.1272 72.4234 46.3181 81.7494 39.5088 91.0752C32.6994 100.253 25.964 109.505 19.3027 118.831C15.8981 123.568 12.5672 128.305 9.31054 133.042C6.05387 137.927 2.94498 142.739 -0.0156324 147.476C-1.49578 149.696 -2.90224 151.842 -4.23438 153.914C-5.56666 156.135 -6.82455 158.356 -8.0088 160.576C-9.63699 163.24 -11.0434 165.979 -12.2275 168.791C-13.2637 171.752 -14.7446 174.49 -16.669 177.007C-17.113 177.599 -17.779 177.895 -18.667 177.896C-19.5552 178.044 -20.2956 177.969 -20.8877 177.673C-22.368 177.229 -23.404 176.415 -23.9961 175.23C-24.2921 174.638 -24.5141 173.972 -24.6621 173.232C-24.8101 172.492 -24.9584 171.752 -25.1065 171.012C-25.2545 168.939 -25.2545 166.793 -25.1065 164.572C-25.1064 160.132 -24.8845 155.617 -24.4404 151.028C-23.9963 146.587 -23.4779 142.146 -22.8857 137.705C-22.2936 133.116 -21.7015 128.527 -21.1094 123.938C-20.5173 119.35 -20.0734 114.908 -19.7774 110.615C-19.6293 108.099 -19.5557 105.656 -19.5557 103.288C-19.4076 100.92 -19.4813 98.5511 -19.7774 96.1826C-19.9254 94.9984 -20.0737 93.8878 -20.2217 92.8516C-20.2217 91.8155 -20.37 90.7055 -20.666 89.5215C-20.666 88.4853 -20.8879 87.3747 -21.332 86.1904C-21.3321 85.8945 -21.4058 85.6724 -21.5537 85.5244V84.6357C-21.5537 84.9318 -21.6283 85.0064 -21.7764 84.8584V84.4141C-21.7764 84.118 -21.85 83.8961 -21.9981 83.748C-22.2941 82.8599 -22.6643 81.9712 -23.1084 81.083C-23.4044 80.0471 -23.8485 79.0852 -24.4404 78.1973L-25.1065 76.8643C-25.3197 76.651 -25.4167 76.5914 -25.3994 76.6855C-25.4358 76.6573 -25.4861 76.6426 -25.5508 76.6426V76.1982L-27.3272 73.9775L-27.9932 73.3115L-29.1035 72.4238L-30.2139 71.7578C-30.3619 71.6098 -30.6576 71.4615 -31.1016 71.3135C-31.3976 71.0175 -31.25 71.0176 -30.6582 71.3135C-31.3983 70.7215 -32.36 70.2028 -33.544 69.7588V69.5371H-34.2109C-34.8028 69.2412 -35.3207 69.0928 -35.7647 69.0928C-36.6528 68.7967 -37.5415 68.1309 -38.4297 67.0947C-39.3178 66.0586 -39.1695 65.0961 -37.9854 64.208C-29.6958 58.5829 -21.3322 53.2537 -12.8945 48.2207C-4.45684 43.0397 4.20317 38.1543 13.085 33.5654C25.2234 27.0521 37.6581 21.2791 50.3887 16.2461C63.2673 11.065 76.4423 6.99381 89.9131 4.0332C96.2783 2.70095 102.644 1.66494 109.009 0.9248ZM108.632 166.225C108.683 166.258 108.736 166.298 108.787 166.349C108.735 166.307 108.684 166.266 108.632 166.225ZM281.531 88.8555C282.271 88.8555 283.012 89.0028 283.752 89.2988C284.64 89.5949 285.232 90.1134 285.528 90.8535C285.824 91.5935 285.751 92.1858 285.307 92.6299C285.011 93.074 284.492 93.2959 283.752 93.2959C283.9 93.2959 283.678 93.4442 283.086 93.7402L281.754 95.5166L279.755 99.7353L277.979 103.732C280.495 101.216 283.234 98.9211 286.194 96.8486C289.155 94.6282 292.338 93.0001 295.742 91.9639C296.482 91.6678 297.445 91.7415 298.629 92.1855C299.813 92.6296 300.554 93.37 300.85 94.4062C300.998 96.4787 300.701 98.477 299.961 100.401C299.221 102.178 298.407 103.954 297.519 105.73C296.482 107.655 295.373 109.505 294.188 111.281C293.152 113.058 292.264 114.982 291.523 117.055C291.079 118.091 290.709 119.053 290.413 119.941C290.117 120.682 289.895 121.644 289.747 122.828C289.451 124.012 289.525 125.123 289.969 126.159C290.561 126.011 291.079 125.863 291.523 125.715C291.968 125.567 292.486 125.345 293.078 125.049L297.297 122.828L307.066 117.055C310.471 114.834 313.802 112.688 317.059 110.615C320.463 108.395 323.868 106.026 327.272 103.51L335.488 97.5146C336.228 96.7745 337.191 96.0341 338.375 95.2939L339.485 94.6279C339.781 94.48 340.003 94.3325 340.151 94.1846C340.102 94.2339 340.028 94.3078 339.93 94.4062C340.721 93.6154 341.684 93.3857 342.819 93.7158C344.083 93.1796 345.419 92.6694 346.827 92.1855C347.567 91.8896 348.455 91.6675 349.491 91.5195C350.527 91.3715 351.49 91.3715 352.378 91.5195C353.414 91.8156 354.45 92.4078 355.486 93.2959C356.523 94.036 356.744 94.9984 356.152 96.1826C355.856 96.9226 355.339 97.3666 354.599 97.5146C353.858 97.5146 353.118 97.3664 352.378 97.0703C352.23 97.0703 351.86 96.923 351.268 96.6269H351.046C350.898 96.775 350.75 96.8486 350.602 96.8486C350.454 96.7006 350.305 96.7006 350.157 96.8486C350.046 96.8487 349.852 96.8903 349.574 96.9736L349.27 97.0703C346.013 98.5506 342.682 100.475 339.277 102.844C337.945 104.028 336.539 105.361 335.059 106.841C333.43 108.173 331.949 109.653 330.617 111.281C329.285 112.91 328.027 114.612 326.843 116.389C325.511 118.017 324.475 119.867 323.734 121.939C323.438 122.828 323.215 123.79 323.067 124.826C322.919 125.714 322.994 126.603 323.29 127.491C323.586 127.491 323.808 127.417 323.956 127.269C325.14 126.528 326.251 125.863 327.287 125.271C328.175 124.678 329.063 123.938 329.951 123.05C332.172 121.273 334.392 119.127 336.612 116.61L349.491 102.844L356.375 96.6269L356.597 96.4043C357.337 95.3682 358.151 94.4057 359.039 93.5176C359.927 92.6295 360.741 91.6678 361.481 90.6318C361.925 90.1878 362.518 89.9649 363.258 89.9648C363.998 89.8168 364.738 89.8914 365.479 90.1875C366.219 90.3355 366.811 90.7057 367.255 91.2978C367.847 91.7418 368.143 92.2596 368.144 92.8516V93.0742C368.143 93.5183 367.773 94.1106 367.033 94.8506C366.885 95.1466 366.737 95.3686 366.589 95.5166C366.441 95.5166 366.293 95.6649 366.145 95.9609C365.701 96.5528 365.256 97.0707 364.812 97.5146L363.48 98.8467C363.036 99.4387 362.444 100.179 361.704 101.067C361.112 101.956 360.298 103.214 359.262 104.843C358.966 105.435 358.595 106.027 358.151 106.619C357.855 107.063 357.559 107.581 357.263 108.173C356.523 109.505 355.857 110.911 355.265 112.392C354.673 113.724 354.229 114.983 353.933 116.167L353.266 118.387C352.525 120.459 352.822 122.162 354.154 123.494C355.635 124.826 357.707 125.123 360.371 124.383C362.592 123.643 364.664 122.754 366.589 121.718C368.661 120.682 370.882 119.571 373.25 118.387C378.727 115.426 383.761 112.022 388.35 108.173C392.938 104.324 397.601 100.327 402.338 96.1826C403.078 95.7385 403.818 95.5903 404.559 95.7383C405.447 95.7383 406.187 95.8866 406.779 96.1826C407.371 96.4787 407.964 96.9972 408.556 97.7373C409.147 98.3292 409.147 98.8471 408.556 99.291C404.855 102.548 401.228 105.657 397.675 108.617C394.27 111.578 390.495 114.39 386.351 117.055C384.426 118.239 382.872 119.275 381.687 120.163C380.651 120.903 379.393 121.644 377.913 122.384C373.472 124.9 370.216 126.603 368.144 127.491C366.071 128.379 364.22 128.972 362.592 129.268C359.927 129.564 357.115 129.489 354.154 129.045C351.194 128.453 348.973 126.899 347.493 124.383C346.605 123.051 346.16 121.57 346.16 119.941C346.308 118.313 346.605 116.685 347.049 115.057C346.013 116.241 344.902 117.351 343.718 118.387C342.682 119.423 341.572 120.534 340.388 121.718C339.203 122.754 338.093 123.865 337.057 125.049C336.168 126.233 335.132 127.195 333.948 127.936C332.32 129.416 330.247 130.6 327.73 131.488C326.398 132.08 324.992 132.302 323.512 132.154C322.032 132.154 320.551 131.636 319.071 130.6C318.035 129.859 317.295 128.897 316.851 127.713C316.407 126.381 316.185 125.123 316.185 123.938C316.31 121.56 316.859 119.394 317.831 117.439C314.934 119.296 311.939 121.168 308.843 123.05C307.214 123.938 305.66 124.827 304.18 125.715C302.848 126.455 301.367 127.195 299.739 127.936C297.075 129.416 294.41 130.377 291.745 130.821C288.341 131.413 285.676 130.229 283.752 127.269C282.716 125.492 282.346 123.642 282.642 121.718C283.086 119.793 283.678 117.943 284.418 116.167C285.158 114.095 286.12 112.17 287.305 110.394C288.489 108.469 289.673 106.471 290.857 104.398C291.302 103.51 291.745 102.622 292.189 101.733C292.782 100.845 293.225 99.8092 293.521 98.625C290.561 100.253 287.823 102.252 285.307 104.62C282.79 106.988 280.422 109.357 278.201 111.726C275.241 114.982 272.427 118.387 269.763 121.939C267.098 125.344 264.286 128.75 261.325 132.154C261.177 132.154 260.955 132.302 260.659 132.598C260.215 133.338 259.623 133.634 258.883 133.486C257.995 133.338 257.181 133.116 256.44 132.82C255.996 132.672 255.552 132.376 255.108 131.932C254.516 131.488 254.368 130.97 254.664 130.378C256.736 125.641 259.03 121.2 261.547 117.055C263.508 113.622 265.624 110.242 267.89 106.911C267.018 107.468 266.334 107.889 265.837 108.173C264.801 108.765 264.135 109.209 263.839 109.505C260.138 112.021 256.363 114.465 252.515 116.833C248.666 119.201 244.299 121.644 239.414 124.16C238.082 124.9 236.527 125.714 234.751 126.603C232.975 127.343 231.346 128.009 229.866 128.602C228.534 129.194 226.757 129.859 224.537 130.6C222.465 131.488 220.318 132.154 218.098 132.598C215.729 133.042 213.583 133.042 211.658 132.598C209.586 132.154 208.031 130.969 206.995 129.045C206.255 127.417 206.181 125.715 206.773 123.938C207.069 122.754 207.513 121.495 208.105 120.163C208.55 118.831 209.142 117.573 209.882 116.389C211.214 113.872 212.62 111.43 214.101 109.062C215.581 106.545 217.135 104.25 218.764 102.178C219.504 101.142 220.318 100.105 221.206 99.0693C222.094 98.0331 223.057 97.0708 224.093 96.1826L227.424 93.0742L231.42 90.1875C232.604 89.5954 233.789 89.6692 234.973 90.4092H234.751C235.047 90.7051 235.343 91.1494 235.639 91.7412C236.083 92.1853 236.231 92.852 236.083 93.7402L234.751 95.0723L233.862 95.7383L231.42 97.959C229.496 99.8833 227.645 101.882 225.869 103.954C224.241 105.878 222.686 107.951 221.206 110.172C219.578 112.392 218.245 114.686 217.209 117.055C216.469 118.239 215.803 119.498 215.211 120.83C214.619 122.162 214.175 123.494 213.879 124.826C213.583 126.01 213.435 126.824 213.435 127.269C213.583 127.861 214.101 128.009 214.989 127.713L217.653 127.047C219.43 126.603 221.206 126.011 222.982 125.271C224.759 124.53 226.535 123.79 228.312 123.05L232.753 120.83C235.121 119.794 237.859 118.313 240.968 116.389C241.227 116.13 241.543 115.927 241.915 115.781L242.241 115.664C242.614 115.518 242.929 115.316 243.188 115.057L256.067 107.062C257.252 106.174 258.51 105.36 259.842 104.62C261.174 103.732 262.433 102.918 263.617 102.178C265.689 100.698 267.391 99.5868 268.724 98.8467C270.204 97.9585 271.61 97.1444 272.942 96.4043C273.262 96.2977 273.62 96.308 274.017 96.4316C274.217 96.127 274.427 95.8212 274.648 95.5166C275.389 94.1844 276.276 92.778 277.312 91.2978C278.349 89.6696 279.755 88.8555 281.531 88.8555ZM141.629 92.8516C139.853 93.2956 137.78 94.3326 135.411 95.9609C134.671 96.4049 134.079 96.849 133.635 97.293C133.191 97.7369 132.673 98.181 132.081 98.625C131.933 98.773 131.785 98.8467 131.637 98.8467C131.637 98.8467 131.563 98.9213 131.415 99.0693L130.971 99.5137C129.194 101.142 127.418 102.77 125.642 104.398C124.013 106.027 122.459 107.803 120.979 109.728L119.868 111.281C119.572 111.577 120.239 111.504 121.867 111.06C123.347 110.467 125.198 109.58 127.418 108.396C129.638 107.063 132.007 105.361 134.523 103.288C137.04 101.216 139.187 98.7734 140.963 95.9609C141.111 95.8129 141.259 95.5164 141.407 95.0723C141.555 94.6281 141.629 93.8876 141.629 92.8516ZM242.522 74.6445C243.263 74.0524 244.151 73.9041 245.187 74.2002C246.223 74.4962 246.963 74.8665 247.407 75.3105C247.703 75.6066 248.074 76.0505 248.518 76.6426C248.962 77.2347 248.888 77.8268 248.296 78.4189L246.075 80.1953L244.077 81.75C243.041 82.4901 242.004 83.0823 240.968 83.5264C239.932 83.9703 238.747 84.0441 237.415 83.748C236.823 83.6 236.231 83.3034 235.639 82.8594C235.195 82.2674 234.973 81.6013 234.973 80.8613C235.121 80.2693 235.713 79.6033 236.749 78.8633C237.045 78.8633 237.415 78.6412 237.859 78.1973L238.97 77.5303L240.746 76.1982L242.522 74.6445ZM-25.3994 76.6855C-25.3526 76.7219 -25.3292 76.7811 -25.3291 76.8643C-25.3703 76.7818 -25.3927 76.722 -25.3994 76.6855ZM-28.4375 73.0898C-28.5853 72.942 -28.437 73.0156 -27.9932 73.3115C-28.1412 73.3115 -28.2895 73.2379 -28.4375 73.0898ZM159.636 19.1328C159.636 19.0345 159.602 18.9695 159.537 18.9365L159.636 19.1328ZM155.416 12.6934C155.268 12.5457 155.417 12.6194 155.86 12.915C155.712 12.915 155.564 12.8413 155.416 12.6934ZM142.721 6.66406C142.806 6.68831 142.82 6.69824 142.76 6.69824C142.747 6.68574 142.733 6.6755 142.721 6.66406Z" fill="#BADD13"/>
</g>
<defs>
<clipPath id="clip0_117_3461">
<rect width="375" height="210" fill="white"/>
</clipPath>
</defs>
</svg>
